<svg width="318" height="318" viewBox="0 0 318 318" fill="none" xmlns="http://www.w3.org/2000/svg">
<g clip-path="url(#clip0_105_91)">
<path d="M19.4175 98.1107V69.7089C19.4175 66.8642 17.1116 64.5583 14.267 64.5583C11.4223 64.5583 9.11646 66.8642 9.11646 69.7089V103.261C9.11646 106.106 11.4223 108.412 14.267 108.412H41.4424V98.1113L19.4175 98.1107Z" fill="#0E0A57"/>
<path d="M303.927 64.5583C301.083 64.5583 298.777 66.8642 298.777 69.7089V98.1107H276.458V108.411H303.927C306.772 108.411 309.078 106.105 309.078 103.261V69.7082C309.078 66.8642 306.772 64.5583 303.927 64.5583Z" fill="#0E0A57"/>
<path d="M75.7594 0.231201C72.9147 0.231201 70.6089 2.53706 70.6089 5.38171V25.9831H80.9093V5.38171C80.9099 2.53706 78.604 0.231201 75.7594 0.231201Z" fill="#0E0A57"/>
<path d="M242.141 0.231201C239.296 0.231201 236.99 2.53706 236.99 5.38171V25.9831H247.291V5.38171C247.291 2.53706 244.986 0.231201 242.141 0.231201Z" fill="#0E0A57"/>
<path d="M274.296 29.3374C273.603 23.7132 268.411 19.1121 262.746 19.1121H55.159C49.4939 19.1121 44.295 23.7132 43.6087 29.3374L30.8152 134.034L70.0674 209.675H247.837L287.089 134.034L274.296 29.3374Z" fill="#FF7039"/>
<path d="M272.952 103.262L264.072 30.5986C264.015 30.1335 263.209 29.4131 262.745 29.4131H55.159C54.6946 29.4131 53.8892 30.1261 53.8328 30.5868L44.9529 103.262H272.952Z" fill="white"/>
<path d="M253.503 233.329H64.4036V260.798H253.503V233.329Z" fill="#353185"/>
<path d="M9.74707 226.458V307.381C9.74707 313.046 14.3823 317.681 20.0475 317.681H60.9688C66.6339 317.681 71.2692 313.046 71.2692 307.381V226.458H9.74707Z" fill="#0E0A57"/>
<path d="M246.635 226.458V307.381C246.635 313.046 251.271 317.681 256.936 317.681H297.85C303.516 317.681 308.151 313.046 308.151 307.381V226.458H246.635Z" fill="#0E0A57"/>
<path d="M95.835 167.152C105.53 167.152 113.389 159.293 113.389 149.598C113.389 139.904 105.53 132.044 95.835 132.044C86.1402 132.044 78.281 139.904 78.281 149.598C78.281 159.293 86.1402 167.152 95.835 167.152Z" fill="white"/>
<path d="M222.067 167.152C231.761 167.152 239.621 159.293 239.621 149.598C239.621 139.904 231.761 132.044 222.067 132.044C212.372 132.044 204.513 139.904 204.513 149.598C204.513 159.293 212.372 167.152 222.067 167.152Z" fill="white"/>
<path d="M137.887 172.304C135.042 172.304 132.736 169.998 132.736 167.154V132.046C132.736 129.202 135.042 126.896 137.887 126.896C140.731 126.896 143.037 129.202 143.037 132.046V167.154C143.036 169.998 140.731 172.304 137.887 172.304Z" fill="#0E0A57"/>
<path d="M158.951 172.304C156.106 172.304 153.8 169.998 153.8 167.154V132.046C153.8 129.202 156.106 126.896 158.951 126.896C161.795 126.896 164.101 129.202 164.101 132.046V167.154C164.101 169.998 161.795 172.304 158.951 172.304Z" fill="#0E0A57"/>
<path d="M180.015 172.304C177.17 172.304 174.865 169.998 174.865 167.154V132.046C174.865 129.202 177.17 126.896 180.015 126.896C182.86 126.896 185.166 129.202 185.166 132.046V167.154C185.165 169.998 182.859 172.304 180.015 172.304Z" fill="#0E0A57"/>
<path d="M70.0681 195.941L36.3986 209.675L2.729 195.941V147.768C2.729 140.214 8.90936 134.034 16.4631 134.034H30.8153H38.8501C46.4038 134.034 54.2601 139.981 56.313 147.253L70.0681 195.941Z" fill="#3D51CC"/>
<path d="M315.169 147.768L315.176 195.941L281.507 209.675L247.837 195.941L261.585 147.253C263.638 139.981 271.501 134.034 279.055 134.034H287.089H301.435C308.989 134.034 315.169 140.214 315.169 147.768Z" fill="#3D51CC"/>
<path d="M315.176 195.941H2.729V233.326H315.183L315.176 195.941Z" fill="#4C7FE1"/>
</g>
<defs>
<clipPath id="clip0_105_91">
<rect width="317.45" height="317.45" fill="white" transform="translate(0.230957 0.231201)"/>
</clipPath>
</defs>
</svg>
